<?xml version="1.0" encoding="UTF-8" standalone="no"?>
<!-- Created with Inkscape (http://www.inkscape.org/) -->

<svg
   xmlns:dc="http://purl.org/dc/elements/1.1/"
   xmlns:cc="http://creativecommons.org/ns#"
   xmlns:rdf="http://www.w3.org/1999/02/22-rdf-syntax-ns#"
   xmlns:svg="http://www.w3.org/2000/svg"
   xmlns="http://www.w3.org/2000/svg"
   xmlns:sodipodi="http://sodipodi.sourceforge.net/DTD/sodipodi-0.dtd"
   xmlns:inkscape="http://www.inkscape.org/namespaces/inkscape"
   width="210mm"
   height="297mm"
   viewBox="0 0 210 297"
   version="1.1"
   id="svg8"
   inkscape:version="0.92.2 5c3e80d, 2017-08-06"
   sodipodi:docname="drawing.svg">
  <defs
     id="defs2">
    <marker
       inkscape:stockid="Arrow1Lstart"
       orient="auto"
       refY="0.0"
       refX="0.0"
       id="Arrow1Lstart"
       style="overflow:visible"
       inkscape:isstock="true">
      <path
         id="path896"
         d="M 0.0,0.0 L 5.0,-5.0 L -12.5,0.0 L 5.0,5.0 L 0.0,0.0 z "
         style="fill-rule:evenodd;stroke:none;stroke-width:1pt;stroke-opacity:1;fill:#000000;fill-opacity:1"
         transform="scale(0.8) translate(12.5,0)" />
    </marker>
  </defs>
  <sodipodi:namedview
     id="base"
     pagecolor="#ffffff"
     bordercolor="#666666"
     borderopacity="1.0"
     inkscape:pageopacity="0.0"
     inkscape:pageshadow="2"
     inkscape:zoom="1.4142136"
     inkscape:cx="410.70408"
     inkscape:cy="464.504"
     inkscape:document-units="mm"
     inkscape:current-layer="layer2"
     showgrid="false"
     inkscape:window-width="1680"
     inkscape:window-height="1030"
     inkscape:window-x="0"
     inkscape:window-y="20"
     inkscape:window-maximized="0" />
  <metadata
     id="metadata5">
    <rdf:RDF>
      <cc:Work
         rdf:about="">
        <dc:format>image/svg+xml</dc:format>
        <dc:type
           rdf:resource="http://purl.org/dc/dcmitype/StillImage" />
        <dc:title />
      </cc:Work>
    </rdf:RDF>
  </metadata>
  <g
     inkscape:label="Layer 1"
     inkscape:groupmode="layer"
     id="layer1">
    <path
       style="opacity:1;fill:#000000;fill-opacity:1;fill-rule:nonzero;stroke:#000000;stroke-width:1;stroke-linecap:butt;stroke-linejoin:round;stroke-miterlimit:4;stroke-dasharray:none;stroke-dashoffset:0;stroke-opacity:1;paint-order:normal"
       d="m 116.71456,105.12969 c -3.90578,-0.0243 -8.00341,0.18441 -10.81123,0.61599 -14.857546,2.28373 -27.923906,8.86066 -38.419876,19.33783 -10.81236,10.79299 -17.425031,24.18331 -19.604491,39.69886 -0.541941,3.85812 -0.460319,14.4239 0.142111,18.38855 0.606398,3.99082 2.205729,10.34449 3.46749,13.7759 1.402629,3.8145 4.85467,10.6646 6.991299,13.87305 4.505621,6.76583 10.200361,12.8139 16.546281,17.57206 9.57144,7.17664 21.709259,11.87289 34.146236,13.21211 2.58407,0.27826 14.35811,-0.0476 16.80105,-0.46509 14.78846,-2.52717 26.87053,-8.51727 37.13983,-18.41283 27.66572,-26.65886 28.09651,-70.43057 0.96119,-97.61884 -10.58133,-10.60198 -24.04623,-17.28218 -39.29165,-19.49286 -2.1087,-0.30577 -5.03041,-0.46583 -8.06824,-0.48473 z m -0.9679,0.43512 c 10.3379,-0.0413 20.37616,2.28885 29.93822,6.96649 19.49253,9.53552 33.3841,28.15086 37.01789,49.60524 1.08527,6.40757 1.19788,14.84317 0.27853,20.90208 -2.27289,14.97933 -8.76973,27.91843 -19.30941,38.45812 -10.10736,10.10735 -22.57503,16.50425 -37.02254,18.99471 -4.19978,0.72396 -14.91643,0.91954 -19.39313,0.35398 -12.147499,-1.53467 -24.431056,-6.7716 -34.199466,-14.57999 -1.23693,-0.98874 -3.56768,-3.11232 -5.17953,-4.71909 -11.2622,-11.22672 -18.099209,-25.6379 -19.707841,-41.54165 -0.697637,-6.89724 0.01021,-16.34966 1.73323,-23.14691 6.519641,-25.71983 27.624001,-45.47461 53.581217,-50.15403 4.12652,-0.7439 8.21756,-1.12279 12.26283,-1.13895 z m 0.4439,0.81804 c -3.87939,0.0131 -7.93553,0.22136 -10.25054,0.59686 -14.638206,2.37434 -27.331136,8.7886 -37.485566,18.94302 -8.113221,8.11321 -14.058351,18.17881 -17.25631,29.21682 -1.697719,5.85978 -2.810742,15.67174 -2.462902,21.70927 0.786278,13.6475 5.347761,26.13971 13.574362,37.17396 2.94956,3.9562 9.61663,10.62043 13.2824,13.27671 9.20872,6.67281 19.878799,11.14303 30.427086,12.74754 3.0616,0.4657 14.0567,0.55986 18.02939,0.15451 11.46112,-1.16943 24.15665,-6.49405 33.82893,-14.18828 2.8672,-2.28083 8.08855,-7.4973 10.4128,-10.40298 7.09085,-8.86466 11.6235,-18.82689 13.8343,-30.40538 0.57253,-2.99848 0.70832,-4.61017 0.8201,-9.73274 0.0839,-3.84413 0.0171,-7.25624 -0.1788,-9.12761 -1.25929,-12.02691 -5.85515,-23.58284 -13.32942,-33.51578 -2.45768,-3.26613 -8.08417,-9.06534 -11.32437,-11.67215 -9.77974,-7.86801 -21.58322,-12.86686 -34.09196,-14.43736 -1.90175,-0.23876 -4.81219,-0.34657 -7.8295,-0.33641 z"
       id="path1385"
       inkscape:connector-curvature="0" />
  </g>
  <g
     inkscape:groupmode="layer"
     id="layer2"
     inkscape:label="Layer 2">
    <path
       style="fill:#ffffff;stroke-width:0.26073653"
       d="m 111.65379,241.21494 c 0,-0.1434 0.11732,-0.26073 0.26072,-0.26073 0.14341,0 0.26074,0.11733 0.26074,0.26073 0,0.14342 -0.11733,0.26074 -0.26074,0.26074 -0.1434,0 -0.26072,-0.11732 -0.26072,-0.26074 z m 1.56441,-0.13036 c 0,-0.21512 0.17599,-0.39111 0.3911,-0.39111 0.21511,0 0.39111,0.17599 0.39111,0.39111 0,0.21511 -0.176,0.3911 -0.39111,0.3911 -0.21511,0 -0.3911,-0.17599 -0.3911,-0.3911 z m 4.43252,0 c 0,-0.21512 0.17599,-0.39111 0.3911,-0.39111 0.21512,0 0.39111,0.17599 0.39111,0.39111 0,0.21511 -0.17599,0.3911 -0.39111,0.3911 -0.21511,0 -0.3911,-0.17599 -0.3911,-0.3911 z m 1.82515,0.13036 c 0,-0.1434 0.11734,-0.26073 0.26074,-0.26073 0.14341,0 0.26074,0.11733 0.26074,0.26073 0,0.14342 -0.11733,0.26074 -0.26074,0.26074 -0.1434,0 -0.26074,-0.11732 -0.26074,-0.26074 z m -12.51535,-0.65184 c 0,-0.2151 0.11734,-0.3911 0.26074,-0.3911 0.1434,0 0.26074,0.176 0.26074,0.3911 0,0.21511 -0.11734,0.39111 -0.26074,0.39111 -0.1434,0 -0.26074,-0.176 -0.26074,-0.39111 z m 17.20861,0 c 0,-0.2151 0.11734,-0.3911 0.26074,-0.3911 0.1434,0 0.26073,0.176 0.26073,0.3911 0,0.21511 -0.11733,0.39111 -0.26073,0.39111 -0.1434,0 -0.26074,-0.176 -0.26074,-0.39111 z m -19.25652,-0.19669 c -0.20792,-0.20791 -0.20788,-0.38081 1.5e-4,-0.63146 0.42055,-0.50673 1.00481,-0.42043 1.00481,0.14841 0,0.59212 -0.60507,0.88294 -1.00496,0.48305 z m 3.43694,-0.57839 -0.90544,-0.90545 0.47522,-0.81361 c 0.59878,-1.02512 2.37539,-2.65522 2.68519,-2.46376 0.31208,0.19288 1.30999,2.88759 1.30999,3.53746 0,0.56318 -1.38376,1.54823 -2.17714,1.54984 -0.2653,5.1e-4 -0.88982,-0.40648 -1.38782,-0.90448 z m 12.23445,0.38683 c -0.4961,-0.30247 -0.84739,-0.73037 -0.84739,-1.03219 0,-0.64987 0.99791,-3.34458 1.31,-3.53746 0.3098,-0.19146 2.0864,1.43864 2.68518,2.46376 l 0.47524,0.81361 -0.90545,0.90545 c -1.03913,1.03912 -1.53256,1.10936 -2.71758,0.38683 z m 5.47547,0.32811 c -0.37298,-0.1301 -0.44939,-1.11318 -0.0866,-1.11318 0.51945,0 1.06426,0.33368 1.06426,0.65185 0,0.38801 -0.50495,0.62627 -0.97776,0.46133 z M 100.70284,240.172 c 0,-0.14341 0.11734,-0.26074 0.26074,-0.26074 0.1434,0 0.26074,0.11733 0.26074,0.26074 0,0.1434 -0.11734,0.26073 -0.26074,0.26073 -0.1434,0 -0.26074,-0.11733 -0.26074,-0.26073 z m 13.43569,-0.28863 c -0.88722,-0.39144 -1.02433,-0.6052 -1.7243,-2.68823 -0.41825,-1.24462 -0.76044,-2.30324 -0.76044,-2.35248 0,-0.0491 0.49484,-0.28751 1.09966,-0.5295 1.46598,-0.58658 4.67825,-0.58658 6.14423,0 0.60482,0.24199 1.09967,0.48027 1.09967,0.5295 0,0.0492 -0.34332,1.11117 -0.76292,2.35983 -0.68065,2.02554 -0.85636,2.3105 -1.62959,2.64285 -1.21409,0.52186 -2.34165,0.53422 -3.46631,0.038 z m -12.13201,-0.10248 c 0,-0.26854 0.17089,-0.39643 0.45629,-0.34147 0.54959,0.10585 0.51495,0.56858 -0.0514,0.68651 -0.23622,0.0491 -0.40488,-0.0945 -0.40488,-0.34504 z m 26.65487,0.0815 c 0.16116,-0.48347 0.72246,-0.56365 0.72246,-0.10321 0,0.22707 -0.18578,0.41284 -0.41283,0.41284 -0.22706,0 -0.36639,-0.13933 -0.30963,-0.30963 z m -29.457788,-0.64526 c -0.46826,-0.18896 -0.40226,-1.3788 0.087,-1.56652 0.5439,-0.20872 1.535098,0.78248 1.326388,1.32638 -0.15449,0.4026 -0.756968,0.50496 -1.413288,0.24014 z m 31.993608,-0.23265 c -0.28085,-0.33839 -0.24665,-0.49506 0.20709,-0.9488 0.66792,-0.66791 1.36912,-0.46024 1.36912,0.40547 0,0.91855 -0.98346,1.25756 -1.57621,0.54333 z m -27.887,-0.37335 c -0.21511,-0.14095 -0.62577,-0.26274 -0.91257,-0.27063 -0.28682,-0.008 -1.07563,-0.52453 -1.75294,-1.14809 l -1.231438,-1.13374 0.3556,-2.04993 c 0.19559,-1.12745 0.440248,-2.7974 0.543678,-3.71096 l 0.18807,-1.66103 1.20924,0.16062 c 2.50048,0.33213 6.83466,3.0744 7.84608,4.96427 0.35356,0.66062 0.32002,0.7399 -0.81239,1.92012 -0.64965,0.67708 -1.43312,1.60001 -1.74104,2.05098 -0.36394,0.53302 -0.76575,0.81207 -1.1483,0.7975 -0.32366,-0.0123 -0.94046,0.0585 -1.37068,0.15737 -0.43022,0.0989 -0.9582,0.0644 -1.17331,-0.0764 z m 23.37902,-0.003 c -0.40649,-0.12518 -0.89185,-0.16898 -1.07856,-0.0974 -0.18745,0.072 -0.60429,-0.25668 -0.9307,-0.73367 -0.32516,-0.47519 -1.12274,-1.41793 -1.77238,-2.095 -1.13241,-1.18024 -1.16596,-1.25951 -0.81239,-1.92013 1.01143,-1.88987 5.34559,-4.63213 7.84606,-4.96427 l 1.20925,-0.16063 0.17753,1.66104 c 0.0977,0.91357 0.34573,2.58467 0.55129,3.71355 l 0.37377,2.05252 -1.21757,1.07632 c -0.66964,0.59198 -1.52057,1.15541 -1.8909,1.25209 -0.37034,0.0967 -0.90802,0.23592 -1.19483,0.30943 -0.28681,0.0735 -0.85406,0.0313 -1.26057,-0.0939 z m -30.274838,-0.44958 c -0.19541,-0.50925 0.46165,-1.11501 1.20944,-1.11501 0.48202,0 0.59544,0.41695 0.31338,1.15199 -0.21224,0.55309 -1.30659,0.52652 -1.52282,-0.0369 z m 37.249388,-0.19812 c -0.22118,-0.88132 -0.003,-1.07214 0.8747,-0.7636 0.9736,0.34239 0.97627,1.25028 0.004,1.36239 -0.57707,0.0665 -0.73949,-0.0442 -0.87871,-0.59879 z m -39.7401,-0.13466 c 0,-0.1434 0.117328,-0.26074 0.260732,-0.26074 0.143405,0 0.260743,0.11734 0.260743,0.26074 0,0.1434 -0.117338,0.26075 -0.260743,0.26075 -0.143404,0 -0.260732,-0.11735 -0.260732,-0.26075 z m 43.02153,0 c 0,-0.1434 0.17599,-0.26074 0.39111,-0.26074 0.2151,0 0.3911,0.11734 0.3911,0.26074 0,0.1434 -0.176,0.26075 -0.3911,0.26075 -0.21512,0 -0.39111,-0.11735 -0.39111,-0.26075 z m -45.107415,-0.93431 c 0,-0.46043 0.561298,-0.38024 0.72245,0.10321 0.05676,0.17029 -0.08258,0.30964 -0.309631,0.30964 -0.227051,0 -0.412819,-0.18578 -0.412819,-0.41285 z m 47.253065,0.10321 c 0.16115,-0.48345 0.72245,-0.56364 0.72245,-0.10321 0,0.22707 -0.18577,0.41285 -0.41283,0.41285 -0.22706,0 -0.36638,-0.13935 -0.30962,-0.30964 z m -44.630725,-0.40243 c -1.26068,-0.2367 -2.474532,-1.31618 -2.794363,-2.48499 -0.166316,-0.60781 -0.455323,-1.48454 -0.642235,-1.9483 -0.305798,-0.75871 -0.288563,-0.88342 0.172012,-1.24478 1.645582,-1.29104 5.071333,-2.46257 7.225853,-2.47106 0.89413,-0.004 0.97763,0.0575 0.97622,0.71317 -0.002,0.78745 -0.71144,5.69786 -0.9139,6.32286 -0.10615,0.32766 -2.847606,1.39935 -3.256347,1.27298 -0.07174,-0.0221 -0.416969,-0.0941 -0.76724,-0.15988 z m 40.071915,-0.2983 c -0.68192,-0.23303 -1.29644,-0.59969 -1.36561,-0.8148 -0.20238,-0.62947 -0.91127,-5.53903 -0.91294,-6.32286 -9.9e-4,-0.65569 0.0821,-0.71669 0.97622,-0.71317 2.1545,0.009 5.58024,1.18002 7.22582,2.47106 0.46058,0.36136 0.47783,0.48607 0.17202,1.24478 -0.18691,0.46376 -0.47591,1.34049 -0.64223,1.9483 -0.56058,2.04866 -2.99757,3.02586 -5.45328,2.18669 z m -46.073678,-1.1247 c -0.701668,-0.75314 -0.68521,-0.83796 0.383295,-1.97538 0.881988,-0.93886 0.928808,-0.95586 1.300365,-0.47233 0.211993,0.27586 0.462182,0.91064 0.555978,1.4106 0.133412,0.71114 0.06652,0.98507 -0.307257,1.25839 -0.689074,0.50385 -1.324617,0.43109 -1.932381,-0.22128 z m 52.801988,0.22128 c -0.37379,-0.27332 -0.44067,-0.54725 -0.30727,-1.25839 0.0938,-0.49996 0.34399,-1.13474 0.55598,-1.4106 0.37156,-0.48353 0.41838,-0.46653 1.30037,0.47233 1.06849,1.13742 1.08495,1.22224 0.38329,1.97538 -0.60776,0.65237 -1.24331,0.72513 -1.93237,0.22128 z m -32.21395,-3.51702 c -2.09864,-2.14705 -3.88445,-3.21361 -6.64877,-3.97093 l -1.56443,-0.42858 -0.16074,-6.36192 c -0.16219,-6.4188 -0.52371,-9.70323 -1.541958,-14.00905 -0.28246,-1.19441 -0.51356,-2.21555 -0.51356,-2.26918 0,-0.50021 8.868068,-1.93748 13.362748,-2.16573 5.11767,-0.2599 10.69945,0.05 15.31825,0.85057 3.6461,0.63194 5.73622,1.11113 5.73622,1.31516 0,0.0536 -0.23112,1.07478 -0.51356,2.26918 -1.03206,4.36421 -1.38739,7.58432 -1.54582,14.00905 l -0.15689,6.36192 -1.56442,0.42859 c -2.72808,0.7474 -4.5529,1.82964 -6.68078,3.96217 l -1.98753,1.99187 -1.40205,-0.48412 c -2.2507,-0.77716 -5.00061,-0.65009 -7.79008,0.36001 -0.25158,0.091 -1.08867,-0.57204 -2.34663,-1.85901 z m -24.437851,1.1934 c -0.412435,-0.44727 -0.531657,-0.89642 -0.501737,-1.89034 l 0.03922,-1.30368 0.984279,-0.0813 c 0.950014,-0.0784 3.839348,0.98178 3.839348,1.40889 0,0.10072 -0.418515,0.69387 -0.930028,1.31811 -0.797495,0.97323 -1.069709,1.13498 -1.91008,1.13498 -0.682227,0 -1.144438,-0.17826 -1.521012,-0.58665 z m 59.002891,-0.54833 c -0.51152,-0.62424 -0.93004,-1.21739 -0.93004,-1.31811 0,-0.42711 2.88932,-1.48738 3.83934,-1.40889 l 0.98428,0.0813 0.0392,1.30368 c 0.0506,1.68339 -0.5974,2.47699 -2.02275,2.47699 -0.84036,0 -1.1126,-0.16175 -1.91007,-1.13497 z m -61.890242,-0.48156 c -0.481753,-0.48174 -0.37486,-0.93817 0.327488,-1.39835 0.754095,-0.49411 1.18478,-0.31191 1.18478,0.50117 0,0.62406 -0.44193,1.21007 -0.912576,1.21007 -0.157743,0 -0.427602,-0.1408 -0.599692,-0.31289 z m 66.978332,-0.0527 c -0.37246,-0.44879 -0.28576,-1.50499 0.13488,-1.64329 0.15755,-0.0518 0.56821,0.13699 0.91258,0.41954 0.51051,0.41885 0.57282,0.60098 0.33745,0.98632 -0.37795,0.61878 -0.98242,0.72241 -1.38491,0.23743 z m -59.729851,-1.98624 c -0.824151,-0.65117 -2.924111,-1.29851 -4.212414,-1.29851 -0.827038,0 -1.052808,-0.12352 -1.379113,-0.75455 -0.541018,-1.0462 -1.844675,-2.29983 -3.009658,-2.89417 l -0.979557,-0.49973 -0.113516,-2.96557 c -0.105946,-2.768 -0.178269,-3.10194 -1.085475,-5.01226 -0.787886,-1.65907 -0.908486,-2.10779 -0.636775,-2.36932 0.583087,-0.56121 4.932094,-3.11577 7.505458,-4.4086 5.060699,-2.54246 12.019833,-5.03762 12.473363,-4.47226 0.29856,0.37216 0.93079,3.1472 1.46483,6.42954 0.56805,3.49128 0.9467,10.39062 0.72233,13.1615 l -0.18963,2.3419 -2.34072,0.3338 c -2.351276,0.33533 -4.93134,1.31887 -6.315163,2.40738 -0.828339,0.65156 -1.080272,0.65168 -1.90396,7.7e-4 z m 51.807771,-7.7e-4 c -1.3839,-1.08857 -3.96388,-2.07204 -6.31517,-2.40732 l -2.3407,-0.33376 -0.19324,-2.0812 c -0.21021,-2.26412 -0.0637,-6.64659 0.35261,-10.55515 0.32308,-3.03254 1.4647,-8.85677 1.81992,-9.28479 0.47777,-0.57567 7.35639,1.88047 12.49157,4.46036 2.57336,1.29283 6.92236,3.84739 7.50545,4.40861 0.27171,0.26152 0.15111,0.71025 -0.63677,2.36931 -0.90721,1.91033 -0.97954,2.24426 -1.08548,5.01226 l -0.11352,2.96557 -0.97955,0.49973 c -1.16497,0.59434 -2.46864,1.84797 -3.00964,2.89418 -0.32693,0.63221 -0.55149,0.75454 -1.38501,0.75454 -1.29724,0 -3.18689,0.57764 -4.1627,1.27248 -0.958,0.68216 -1.11005,0.68413 -1.94777,0.0252 z m -62.119321,-0.42315 c -0.351662,-0.37946 -0.639289,-0.81945 -0.63918,-0.97776 2.66e-4,-0.36116 0.875573,-2.6846 1.093428,-2.90246 0.467395,-0.46746 3.599623,2.23966 3.599623,3.11099 0,0.515 -1.704759,1.45906 -2.634719,1.45906 -0.508301,0 -1.002351,-0.24019 -1.419152,-0.68992 z m 71.128341,0.12275 c -0.46607,-0.28813 -0.8474,-0.68873 -0.8474,-0.89022 0,-0.87271 3.13161,-3.58083 3.5996,-3.11283 0.21787,0.21786 1.09317,2.54129 1.09344,2.90246 1.1e-4,0.15831 -0.28751,0.5983 -0.63918,0.97775 -0.77965,0.84125 -1.97061,0.88688 -3.20646,0.12284 z m -74.317076,-1.9247 c -0.367971,-0.25773 -0.579491,-0.67671 -0.579491,-1.14782 0,-0.59775 0.159567,-0.79753 0.821116,-1.02815 0.898179,-0.3131 1.872248,-0.37406 2.114011,-0.1323 0.08465,0.0847 -0.01656,0.6372 -0.224951,1.22786 -0.54085,1.53291 -1.088313,1.81051 -2.130685,1.08041 z m 79.278736,0.1957 c -0.38583,-0.24515 -1.1381,-2.28797 -0.92211,-2.50397 0.24178,-0.24176 1.21584,-0.1808 2.11403,0.1323 0.66155,0.23062 0.82111,0.4304 0.82111,1.02815 0,1.0649 -1.19563,1.86287 -2.01303,1.34352 z m -82.465598,-2.26681 c 0,-0.21511 0.176003,-0.39111 0.391109,-0.39111 0.215107,0 0.3911,0.176 0.3911,0.39111 0,0.21511 -0.175993,0.3911 -0.3911,0.3911 -0.215106,0 -0.391109,-0.17599 -0.391109,-0.3911 z m 86.303778,0 c 0,-0.21511 0.176,-0.39111 0.39111,-0.39111 0.21511,0 0.3911,0.176 0.3911,0.39111 0,0.21511 -0.17599,0.3911 -0.3911,0.3911 -0.21511,0 -0.39111,-0.17599 -0.39111,-0.3911 z m -85.294213,-1.13663 c -1.116015,-0.52212 -2.313242,-1.85617 -2.313242,-2.5776 0,-0.28056 -0.136309,-0.90112 -0.302901,-1.37901 -0.287627,-0.82508 -0.258023,-0.90717 0.586655,-1.62693 1.42068,-1.21059 4.885098,-3.83966 5.059652,-3.83966 0.0877,0 0.500299,0.73332 0.916883,1.62961 0.886216,1.90667 1.368923,4.58171 1.134886,6.28919 -0.150391,1.09726 -0.229552,1.20698 -0.870763,1.20698 -0.387936,0 -1.281306,0.17473 -1.98527,0.38828 -0.703964,0.21356 -1.279936,0.38005 -1.279936,0.37 0,-0.01 -0.42568,-0.21744 -0.945964,-0.46086 z m 82.817223,0.0865 c -0.57362,-0.18906 -1.41096,-0.35275 -1.86074,-0.36378 -0.76129,-0.0187 -0.82957,-0.0987 -0.98842,-1.15792 -0.24368,-1.62499 0.27013,-4.46146 1.15175,-6.35829 0.41659,-0.89628 0.82918,-1.6296 0.91689,-1.6296 0.17456,0 3.63897,2.62907 5.05966,3.83966 0.84467,0.71976 0.87427,0.80185 0.58665,1.62693 -0.16659,0.47789 -0.3029,1.09233 -0.3029,1.3654 0,0.63596 -1.31233,2.29119 -1.82515,2.30208 -0.21511,0.005 -0.61887,0.18056 -0.89724,0.3911 -0.57699,0.43642 -0.46616,0.43736 -1.8405,-0.0156 z m -85.651941,-0.38381 c 0,-0.1434 0.110411,-0.26074 0.245351,-0.26074 0.134938,0 0.317859,0.11734 0.406492,0.26074 0.0886,0.1434 -0.02178,0.26073 -0.24535,0.26073 -0.223572,0 -0.406493,-0.11733 -0.406493,-0.26073 z m 90.084461,0 c 0.0885,-0.1434 0.21289,-0.26074 0.27613,-0.26074 0.0632,0 0.11497,0.11734 0.11497,0.26074 0,0.1434 -0.12426,0.26073 -0.27612,0.26073 -0.15186,0 -0.20361,-0.11733 -0.11498,-0.26073 z m -91.90642,-2.07992 c -0.220636,-0.41228 -0.1641,-0.62727 0.282344,-1.07372 0.648659,-0.64867 1.007398,-0.34015 1.014148,0.8722 0.003,0.54026 -0.122286,0.71702 -0.508301,0.71702 -0.281763,0 -0.63645,-0.23198 -0.788191,-0.5155 z m 93.1738,0.12381 c -0.0827,-0.21542 -0.076,-0.68734 0.0146,-1.04869 0.13673,-0.54475 0.24765,-0.61271 0.64928,-0.39776 0.68805,0.36822 0.85052,0.97465 0.38568,1.43949 -0.5045,0.5045 -0.85773,0.50684 -1.04955,0.007 z m -94.841476,-1.83151 c -0.483743,-0.48376 -0.505453,-0.62976 -0.172032,-1.15692 0.18704,-0.29572 0.406305,-0.32365 0.973764,-0.1241 0.872763,0.30694 0.941164,0.82499 0.176032,1.33302 -0.486532,0.32305 -0.609241,0.31652 -0.977764,-0.052 z m 96.420886,-0.14698 c -0.48427,-0.5351 -0.48385,-0.55188 0.0228,-0.92242 0.68033,-0.49747 1.53323,-0.35466 1.65372,0.27689 0.0851,0.44553 -0.54884,1.19056 -1.01287,1.19056 -0.0938,0 -0.39245,-0.24526 -0.66373,-0.54503 z m 2.49831,-0.75866 c 0,-0.14341 0.11733,-0.26073 0.26073,-0.26073 0.14341,0 0.26074,0.11732 0.26074,0.26073 0,0.14341 -0.11733,0.26073 -0.26074,0.26073 -0.1434,0 -0.26073,-0.11732 -0.26073,-0.26073 z M 68.50187,218.5014 c -0.573627,-0.26304 -1.206471,-0.48132 -1.406322,-0.48509 -0.466261,-0.009 -2.107201,-1.59502 -2.110847,-2.0405 -0.002,-0.18637 -0.188755,-0.6985 -0.416052,-1.13805 -0.391524,-0.75713 -0.378841,-0.87655 0.241043,-2.2685 0.359881,-0.80812 0.735154,-1.9106 0.833947,-2.44995 0.09878,-0.53935 0.262822,-1.03206 0.364512,-1.09492 0.400984,-0.24782 3.688551,0.64487 5.21773,1.4168 0.889605,0.44906 2.283264,1.46608 3.097038,2.26002 l 1.479571,1.44354 -0.904643,0.69386 c -0.497549,0.38163 -1.788198,1.40459 -2.868096,2.27325 -1.079908,0.86866 -2.080801,1.64428 -2.224205,1.72358 -0.143404,0.0793 -0.730059,-0.0711 -1.303676,-0.33404 z m 91.32274,-1.2265 c -1.19501,-0.95833 -2.57848,-2.05466 -3.07438,-2.43629 l -0.90164,-0.69386 1.47957,-1.44354 c 0.81378,-0.79394 2.20744,-1.81096 3.09703,-2.26002 1.52919,-0.77193 4.81676,-1.66462 5.21773,-1.4168 0.1017,0.0628 0.26575,0.55557 0.36453,1.09492 0.0988,0.53935 0.47406,1.64183 0.83394,2.44995 0.61988,1.39195 0.63257,1.51137 0.24105,2.2685 -0.22731,0.43955 -0.41454,0.95168 -0.41605,1.13805 -0.004,0.44608 -1.64521,2.03205 -2.11086,2.03938 -0.19985,0.003 -0.85721,0.22993 -1.46078,0.50393 l -1.09741,0.4982 z m -95.364155,0.86494 c 0,-0.26855 0.170879,-0.39643 0.456288,-0.34147 0.549591,0.10584 0.514933,0.56859 -0.05144,0.68651 -0.236224,0.0491 -0.404877,-0.0945 -0.404877,-0.34504 z m 101.744105,0.09 c 0.13534,-0.406 0.71866,-0.4771 0.73911,-0.09 0.008,0.1434 -0.18194,0.30127 -0.42113,0.35082 -0.27189,0.0563 -0.39108,-0.0414 -0.31798,-0.26073 z m -103.220966,-2.1935 c -0.188173,-0.49038 0.273238,-1.02512 0.671927,-0.77872 0.429779,0.26561 0.339855,1.18735 -0.115832,1.18735 -0.219609,0 -0.469847,-0.18388 -0.556095,-0.40863 z m 104.816076,0 c -0.21731,-0.56631 0.33438,-1.09888 0.72926,-0.70399 0.33376,0.33376 0.127,1.11262 -0.29535,1.11262 -0.15241,0 -0.34767,-0.18388 -0.43391,-0.40863 z M 61.59235,214.51117 c 0,-0.22705 0.18577,-0.41283 0.412829,-0.41283 0.22706,0 0.366395,0.13934 0.309632,0.30963 -0.161162,0.48346 -0.722461,0.56365 -0.722461,0.1032 z m 107.858,0.19555 c -0.30001,-0.3 -0.18988,-0.60838 0.21728,-0.60838 0.21511,0 0.39111,0.17599 0.39111,0.39111 0,0.40715 -0.30838,0.51729 -0.60839,0.21727 z M 74.889185,211.9386 c -2.041019,-1.95126 -4.555914,-3.25457 -7.110673,-3.68502 l -1.844024,-0.31071 -0.329479,-1.61522 c -0.44056,-2.15982 -1.457024,-3.94988 -3.15449,-5.55528 l -1.402518,-1.32642 0.5768,-1.60403 c 0.794784,-2.21027 0.980425,-6.54368 0.370238,-8.64265 -0.239261,-0.82305 -0.374347,-1.65456 -0.300191,-1.84781 0.0741,-0.19326 0.980996,-0.7775 2.015189,-1.29831 4.385932,-2.20872 9.853841,-6.01524 14.067258,-9.79302 l 2.355675,-2.11212 1.313855,1.39769 c 5.330716,5.67082 10.099993,13.08475 13.126548,20.4055 1.323149,3.20044 2.783089,7.78406 2.545329,7.99131 -0.10809,0.0942 -1.839187,0.72177 -3.846865,1.3945 -4.039247,1.35348 -10.747675,4.53767 -14.291729,6.78364 -1.263813,0.80093 -2.319804,1.45231 -2.346628,1.44754 -0.0268,-0.005 -0.811764,-0.73809 -1.744295,-1.62959 z m 77.700205,0.1604 c -3.31193,-2.14267 -10.08535,-5.36374 -14.21012,-6.7576 -2.00769,-0.67843 -3.73876,-1.30928 -3.84687,-1.40186 -0.1081,-0.0926 0.20238,-1.39402 0.68996,-2.89205 3.08501,-9.47842 8.05744,-18.01888 14.57823,-25.03904 l 1.72849,-1.86089 1.89901,1.74654 c 3.90305,3.58963 10.14702,7.96041 14.51295,10.15905 1.0342,0.52081 1.94104,1.10505 2.01519,1.29831 0.0742,0.19325 -0.0512,0.99137 -0.27861,1.7736 -0.43571,1.49874 -0.58965,4.9452 -0.28903,6.47023 0.098,0.49683 0.41485,1.5631 0.70425,2.36945 l 0.52617,1.46613 -1.4507,1.37202 c -1.65858,1.56862 -2.92871,3.87291 -3.18036,5.7699 -0.13491,1.01702 -0.28096,1.29826 -0.72172,1.38979 -0.30393,0.063 -1.19059,0.241 -1.97037,0.39528 -2.1758,0.43046 -4.6457,1.78107 -6.56409,3.58941 -0.95085,0.89628 -1.77319,1.61969 -1.82746,1.60758 -0.0543,-0.0121 -1.09599,-0.66724 -2.31492,-1.45585 z m -90.665925,1.03381 c -1.298474,-0.25081 -2.125423,-2.41765 -1.254906,-3.28816 0.415313,-0.41531 3.451114,-1.04128 3.851093,-0.79408 0.320836,0.19829 0.0338,1.74353 -0.586616,3.15743 -0.489931,1.11662 -0.645614,1.18826 -2.009571,0.92481 z m 105.807555,-0.89547 c -0.63185,-1.43975 -0.92294,-2.98693 -0.59958,-3.18677 0.39997,-0.2472 3.43578,0.37877 3.85108,0.79408 1.03087,1.03086 -0.0373,3.05444 -1.77286,3.35854 -0.95905,0.16804 -0.98986,0.14792 -1.47864,-0.96585 z M 58.854612,210.70877 c 0.0886,-0.1434 0.212889,-0.26074 0.276125,-0.26074 0.06326,0 0.114984,0.11734 0.114984,0.26074 0,0.1434 -0.124256,0.26074 -0.276126,0.26074 -0.151869,0 -0.203607,-0.11734 -0.114983,-0.26074 z m 113.550748,-0.0154 c 0,-0.15187 0.11733,-0.20362 0.26073,-0.11499 0.14341,0.0885 0.26075,0.21289 0.26075,0.27613 0,0.0632 -0.11734,0.11499 -0.26075,0.11499 -0.1434,0 -0.26073,-0.12427 -0.26073,-0.27613 z M 58.108775,209.48491 c -0.293638,-0.29364 -0.178841,-0.6013 0.22437,-0.6013 0.215106,0 0.391099,0.11041 0.391099,0.24535 0,0.32879 -0.407162,0.56426 -0.615469,0.35595 z m 114.984795,0 c -0.29364,-0.29364 -0.17883,-0.6013 0.22437,-0.6013 0.2151,0 0.3911,0.11041 0.3911,0.24535 0,0.32879 -0.40715,0.56426 -0.61547,0.35595 z M 59.204745,208.20154 c -1.225499,-0.90415 -1.780511,-1.89871 -1.782462,-3.19412 -0.002,-1.02215 0.148814,-1.30187 1.471629,-2.73774 0.810334,-0.87959 1.567119,-1.63642 1.681747,-1.68183 0.11463,-0.0455 0.720481,0.38943 1.346347,0.96634 1.34612,1.24081 2.467023,3.32997 2.698754,5.02997 l 0.166376,1.22051 -1.010739,0.15727 c -0.555908,0.0866 -1.625616,0.31326 -2.377128,0.50392 -1.301321,0.33014 -1.40585,0.31755 -2.194524,-0.26432 z m 110.984355,0.27163 c -0.71702,-0.19236 -1.75852,-0.42147 -2.31442,-0.50914 l -1.01073,-0.15936 0.16636,-1.22051 c 0.23173,-1.7 1.35264,-3.78916 2.69877,-5.02997 0.62585,-0.5769 1.23171,-1.01175 1.34635,-0.96634 0.11461,0.0455 0.87141,0.80224 1.68174,1.68183 1.32282,1.43587 1.47318,1.71559 1.47163,2.73774 -0.002,1.31001 -0.55778,2.29059 -1.83065,3.22967 -0.48197,0.35559 -0.88285,0.63286 -0.89084,0.61617 -0.008,-0.0167 -0.60118,-0.18772 -1.31821,-0.38009 z M 55.655164,205.44515 c 0.161152,-0.48347 0.722452,-0.56365 0.722452,-0.10321 0,0.22706 -0.185769,0.41283 -0.41283,0.41283 -0.22706,0 -0.366394,-0.13933 -0.309622,-0.30962 z m 119.618296,-0.10321 c 0,-0.22706 0.13933,-0.36639 0.30963,-0.30962 0.48347,0.16115 0.56365,0.72245 0.10321,0.72245 -0.22707,0 -0.41284,-0.18577 -0.41284,-0.41283 z M 54.813197,203.92962 c 0,-0.1434 0.182921,-0.26074 0.406492,-0.26074 0.223572,0 0.333983,0.11734 0.24535,0.26074 -0.0886,0.1434 -0.271553,0.26074 -0.406493,0.26074 -0.134938,0 -0.245349,-0.11734 -0.245349,-0.26074 z m 121.372843,0 c -0.0886,-0.1434 0.0217,-0.26074 0.24535,-0.26074 0.22359,0 0.40651,0.11734 0.40651,0.26074 0,0.1434 -0.11042,0.26074 -0.24536,0.26074 -0.13494,0 -0.31786,-0.11734 -0.4065,-0.26074 z m -77.959378,-0.58665 c -0.0622,-0.17926 -0.53262,-1.59502 -1.04525,-3.14614 -3.05185,-9.23425 -7.542151,-16.90562 -14.425855,-24.64552 l -1.93376,-2.17428 1.159917,-1.21529 c 7.013419,-7.34827 13.190209,-17.98986 15.730158,-27.10046 0.25096,-0.90017 0.55416,-1.69716 0.67377,-1.77109 0.11961,-0.0739 1.615778,0.16083 3.324798,0.52168 9.29036,1.96154 18.94951,1.95951 28.25841,-0.006 1.72452,-0.36412 3.21714,-0.56636 3.31693,-0.44943 0.0998,0.11694 0.67014,1.70836 1.26744,3.5365 2.91378,8.91805 7.77024,17.17394 14.42096,24.5154 l 1.83573,2.02638 -1.50526,1.62393 c -6.66753,7.19321 -11.84718,15.99859 -14.87992,25.29585 -0.52445,1.60776 -1.04079,3.0236 -1.14743,3.14628 -0.10662,0.12269 -1.2316,-0.0163 -2.49994,-0.30884 -5.46719,-1.26102 -7.70461,-1.47907 -15.08216,-1.46978 -7.22068,0.009 -10.63301,0.35839 -15.28992,1.56511 -1.795088,0.46514 -2.034278,0.47125 -2.178618,0.0557 z M 55.6114,202.74735 c -1.058917,-0.58108 -1.437295,-1.58233 -1.046027,-2.76791 0.321556,-0.9743 0.366483,-1.00338 1.528056,-0.9891 1.559866,0.0193 2.993308,0.52098 3.10157,1.08573 0.09352,0.48781 -2.175414,3.08824 -2.657512,3.04578 -0.159625,-0.0141 -0.576367,-0.18259 -0.926087,-0.3745 z m 117.98531,-0.91131 c -0.70274,-0.75129 -1.1899,-1.50296 -1.14063,-1.75997 0.10829,-0.56482 1.54176,-1.06655 3.10204,-1.08573 1.17078,-0.0144 1.204,0.008 1.50334,1.00697 0.40082,1.33785 -0.009,2.27102 -1.21772,2.77627 -0.49208,0.20561 -0.92298,0.37383 -0.95754,0.37383 -0.0345,0 -0.61483,-0.59012 -1.28949,-1.31137 z M 52.988044,199.64919 c 0,-0.22705 0.185779,-0.41283 0.412829,-0.41283 0.460447,0 0.38026,0.5613 -0.103207,0.72246 -0.170287,0.0568 -0.309622,-0.0826 -0.309622,-0.30963 z m 125.066616,0.19556 c -0.30001,-0.30002 -0.18988,-0.60839 0.21729,-0.60839 0.2151,0 0.39109,0.17601 0.39109,0.39111 0,0.40717 -0.30836,0.51729 -0.60838,0.21728 z M 58.463511,198.43087 c -0.788733,-0.25648 -1.903378,-0.47562 -2.476995,-0.48696 -0.875504,-0.0174 -1.171378,-0.17686 -1.842911,-0.9937 -1.03834,-1.26302 -1.60436,-3.221 -1.192477,-4.12499 0.163705,-0.3593 0.297649,-1.00227 0.297649,-1.42881 0,-0.55989 0.163124,-0.84174 0.586665,-1.01361 5.16484,-2.09592 6.459234,-2.53434 6.681376,-2.26301 0.927111,1.13242 1.207081,6.07279 0.482206,8.5092 -0.669424,2.25003 -0.822614,2.3589 -2.535513,1.80188 z m 112.629379,-0.5877 c -1.01909,-2.30383 -1.19753,-5.51161 -0.46639,-8.38443 0.47969,-1.88485 0.16889,-1.9248 7.18915,0.92406 0.42354,0.17187 0.58667,0.45372 0.58667,1.01361 0,0.42653 0.13394,1.06951 0.29764,1.42881 0.331,0.72645 -0.10792,2.93003 -0.67974,3.41267 -0.16992,0.1434 -0.51894,0.58341 -0.77561,0.97777 -0.37381,0.57431 -0.66368,0.71702 -1.45643,0.71702 -0.54436,0 -1.71475,0.22565 -2.6009,0.50145 l -1.61117,0.50145 z M 52.466567,197.7154 c 0,-0.66231 0.277989,-0.8752 0.693036,-0.53074 0.521013,0.4324 0.422989,1.00876 -0.171559,1.00876 -0.331844,0 -0.521477,-0.17383 -0.521477,-0.47802 z m 125.675003,0.11883 c 0,-0.19754 0.18098,-0.50937 0.40215,-0.69293 0.49839,-0.41361 0.99194,-0.008 0.75182,0.61741 -0.20052,0.52257 -1.15397,0.58497 -1.15397,0.0754 z M 51.279215,195.3026 c -0.09635,-0.15591 -0.03973,-0.41892 0.125837,-0.58448 0.22754,-0.22754 0.357827,-0.20912 0.533703,0.0754 0.248503,0.40211 0.123193,0.79248 -0.254397,0.79248 -0.126475,0 -0.308791,-0.12755 -0.405143,-0.28345 z m 128.307545,0.0407 c -0.19283,-0.312 0.29767,-0.62114 0.64497,-0.4065 0.29159,0.18023 0.10016,0.64923 -0.265,0.64923 -0.12648,0 -0.29747,-0.10922 -0.37997,-0.24273 z M 50.380678,194.02159 c 0,-0.1434 0.117332,-0.26071 0.260738,-0.26071 0.143404,0 0.260736,0.11731 0.260736,0.26071 0,0.14342 -0.117332,0.26075 -0.260736,0.26075 -0.143406,0 -0.260738,-0.11733 -0.260738,-0.26075 z m 0.360871,-1.41881 c -0.284335,-0.74097 0.0241,-1.31769 0.749489,-1.40142 0.56684,-0.0654 0.714796,0.0246 0.714796,0.43498 0,0.86552 -0.290651,1.34233 -0.818289,1.34233 -0.275967,0 -0.566667,-0.16916 -0.645996,-0.37589 z m 128.861971,-0.0365 c -0.087,-0.22684 -0.15826,-0.64528 -0.15826,-0.92989 0,-0.81235 1.40423,-0.56335 1.52204,0.26989 0.13299,0.94056 -1.03856,1.50753 -1.36378,0.66 z M 49.953494,189.98021 c -0.248546,-0.6477 0.117881,-1.21676 0.725311,-1.12642 0.784123,0.11664 1.264296,0.92908 0.744819,1.26021 -0.585305,0.37313 -1.300587,0.30803 -1.47013,-0.13379 z m 130.339166,0.22324 c -0.53205,-0.22255 -0.37275,-0.83239 0.3393,-1.29893 0.78651,-0.51534 1.24936,-0.21707 1.11682,0.71971 -0.0865,0.61103 -0.74954,0.87479 -1.45612,0.57922 z M 51.793331,188.45537 c -1.197433,-1.21789 -1.539049,-2.12291 -1.4323,-3.79447 0.05739,-0.89853 0.239223,-1.28716 0.83804,-1.79103 0.420621,-0.35393 0.939555,-0.98152 1.153193,-1.39465 0.213638,-0.41313 0.597652,-0.75116 0.853369,-0.75116 0.584182,0 3.32129,1.63006 4.298118,2.55969 0.866053,0.82423 2.263446,2.87141 2.263446,3.31598 0,0.17094 -0.674656,0.6128 -1.49924,0.98193 -1.525415,0.68286 -5.13166,2.02843 -5.311457,1.98183 -0.0543,-0.0141 -0.577777,-0.51272 -1.163169,-1.10812 z m 124.523079,0.33466 c -2.94174,-1.12364 -4.43253,-1.86332 -4.43253,-2.19926 0,-0.43709 1.40535,-2.49037 2.26345,-3.30702 0.97683,-0.92963 3.71395,-2.55969 4.29813,-2.55969 0.25571,0 0.63973,0.33803 0.85337,0.75116 0.21364,0.41313 0.73257,1.04072 1.15319,1.39465 0.59882,0.50387 0.78065,0.8925 0.83804,1.79103 0.0403,0.63114 -0.0261,1.49952 -0.14767,1.92974 -0.20756,0.73478 -2.28012,3.02927 -2.6849,2.97241 -0.10206,-0.0144 -1.06553,-0.36219 -2.14108,-0.77302 z M 49.076996,186.98174 c 0,-0.14341 0.11733,-0.26073 0.260736,-0.26073 0.143405,0 0.260737,0.11732 0.260737,0.26073 0,0.1434 -0.117332,0.26074 -0.260737,0.26074 -0.143406,0 -0.260736,-0.11734 -0.260736,-0.26074 z m 132.975624,0 c 0,-0.14341 0.11734,-0.26073 0.26074,-0.26073 0.1434,0 0.26074,0.11732 0.26074,0.26073 0,0.1434 -0.11734,0.26074 -0.26074,0.26074 -0.1434,0 -0.26074,-0.11734 -0.26074,-0.26074 z m -122.233686,-2.3333 c -1.279365,-1.81414 -2.841015,-3.18359 -4.901732,-4.29848 l -1.477236,-0.79921 -0.04671,-1.69479 c -0.03488,-1.26585 -0.225197,-2.04124 -0.751828,-3.06365 l -0.705078,-1.36886 0.705078,-1.36886 c 0.530631,-1.0302 0.715001,-1.78817 0.745186,-3.06366 l 0.0401,-1.69478 1.488667,-0.80322 c 2.06867,-1.11616 3.62079,-2.47547 4.903574,-4.29447 0.601625,-0.8531 1.191029,-1.5511 1.309787,-1.5511 0.397643,0 3.916093,1.8606 6.25882,3.30976 4.746738,2.93622 11.674165,8.5451 11.674165,9.45216 0,0.80172 -5.848918,5.68251 -10.220836,8.52907 -2.600937,1.69348 -7.225854,4.26119 -7.675165,4.26119 -0.139098,0 -0.745146,-0.698 -1.346771,-1.55109 z m 107.930626,0.23073 c -4.84091,-2.60571 -10.43888,-6.62328 -14.11723,-10.13168 l -1.43406,-1.36779 1.82517,-1.68827 c 2.40519,-2.22482 7.23577,-5.87671 10.1904,-7.70393 2.38474,-1.47477 5.90785,-3.34015 6.30854,-3.34015 0.11874,0 0.70814,0.69801 1.30977,1.55111 1.27936,1.81413 2.84101,3.18358 4.90174,4.29846 l 1.47724,0.79922 0.0466,1.69478 c 0.035,1.26585 0.2252,2.04124 0.75184,3.06366 l 0.70507,1.36886 -0.70507,1.36887 c -0.52516,1.01955 -0.717,1.79882 -0.75181,3.05371 l -0.0468,1.68484 -1.46004,0.79215 c -2.04307,1.10847 -3.64168,2.51418 -4.919,4.32543 -0.60163,0.85309 -1.21742,1.54947 -1.36845,1.54747 -0.15104,-0.002 -1.37239,-0.59452 -2.71414,-1.31674 z m -119.061041,0.0208 c -0.192305,-0.31115 0.05178,-0.78646 0.403864,-0.78646 0.317266,0 0.319323,0.70572 0.0027,0.90144 -0.133497,0.0825 -0.316419,0.0308 -0.406493,-0.11498 z m 133.731551,-0.10226 c -0.22091,-0.57566 0.073,-0.86954 0.47126,-0.47127 0.23516,0.23517 0.23615,0.38092 0.004,0.61288 -0.23196,0.23196 -0.34504,0.19828 -0.47546,-0.14161 z M 49.135011,182.14333 c -0.648967,-0.45455 -0.752609,-1.34358 -0.238586,-2.04654 0.287937,-0.39378 0.520548,-0.43069 1.497173,-0.23755 1.428065,0.28241 1.57073,0.77071 0.545759,1.86794 -0.879136,0.94112 -1.011321,0.9716 -1.804346,0.41615 z m 131.576719,-0.41615 c -1.02497,-1.09723 -0.8823,-1.58553 0.54576,-1.86794 0.97664,-0.19314 1.20924,-0.15623 1.49717,0.23755 0.51403,0.70296 0.41039,1.59199 -0.23857,2.04654 -0.79303,0.55545 -0.92522,0.52497 -1.80436,-0.41615 z M 50.380678,178.87343 c -1.393761,-0.27214 -1.825155,-0.77081 -1.825155,-2.10977 0,-0.90094 0.114408,-1.06466 1.238498,-1.77234 l 1.238499,-0.77972 0.449794,0.53936 c 0.76151,0.91316 1.198246,3.02617 0.825989,3.99626 -0.174023,0.4535 -0.231889,0.45729 -1.927625,0.12621 z m 128.967272,-0.11276 c -0.37729,-0.98321 0.054,-3.09022 0.82083,-4.00971 l 0.4498,-0.53936 1.2385,0.77972 c 1.09996,0.6925 1.23849,0.88364 1.23849,1.70895 0,1.27627 -0.37641,1.86833 -1.30152,2.04708 -0.4314,0.0834 -1.12149,0.21627 -1.53352,0.29539 -0.54473,0.10458 -0.79375,0.0276 -0.91258,-0.28207 z M 48.359969,174.27852 c -0.179256,-0.0639 -0.32592,-0.44876 -0.32592,-0.85508 0,-0.40631 0.146664,-0.7911 0.32592,-0.85507 0.402207,-0.14355 1.759973,0.51611 1.759973,0.85507 0,0.33896 -1.357766,0.99863 -1.759973,0.85508 z m 133.877791,-0.24076 c -0.89448,-0.46868 -0.89194,-0.76809 0.0104,-1.22369 0.94652,-0.4779 1.36887,-0.29178 1.36887,0.6032 0,0.90248 -0.45252,1.10606 -1.37928,0.62049 z M 49.794021,171.85557 c -1.12409,-0.70768 -1.238498,-0.8714 -1.238498,-1.77235 0,-0.54594 0.146663,-1.18976 0.32592,-1.43071 0.441112,-0.59292 3.0805,-1.09575 3.368707,-0.64176 0.476648,0.75082 0.02966,3.12884 -0.767836,4.08517 l -0.449794,0.53937 z m 28.615831,-0.70501 c -4.183282,-3.83861 -9.732767,-7.78551 -14.166366,-10.07538 -1.332412,-0.68816 -2.481262,-1.40419 -2.553014,-1.59117 -0.07174,-0.18698 0.06682,-1.0186 0.307957,-1.84806 0.620505,-2.13446 0.414771,-6.70583 -0.39384,-8.75095 l -0.578553,-1.46327 1.460738,-1.38151 c 1.640014,-1.55105 2.892762,-3.84634 3.164522,-5.79806 0.137827,-0.9898 0.285517,-1.26205 0.729488,-1.34474 4.068948,-0.75786 6.120973,-1.71892 8.541069,-4.00018 l 1.731317,-1.63199 2.47394,1.55491 c 4.623211,2.90575 11.825385,6.19733 16.302885,7.45086 0.900177,0.25201 1.689937,0.54439 1.755047,0.64973 0.0651,0.10533 -0.28002,1.42064 -0.76694,2.92289 -2.3408,7.22193 -5.816766,13.91619 -10.326846,19.88807 -1.821676,2.41211 -5.279501,6.38776 -5.815493,6.6864 -0.165902,0.0924 -1.005032,-0.47762 -1.865911,-1.26755 z m 71.824688,0.14965 c -5.39607,-5.74276 -10.13151,-13.0868 -13.15682,-20.40452 -1.18111,-2.85691 -2.77213,-7.71528 -2.61165,-7.97494 0.0651,-0.10534 0.85487,-0.3961 1.75504,-0.64614 4.2854,-1.19036 11.98133,-4.71879 16.46481,-7.54878 l 2.31278,-1.45984 1.73092,1.63163 c 2.41858,2.27981 4.47896,3.24495 8.53661,3.99878 0.44334,0.0824 0.58602,0.35474 0.72172,1.37771 0.25165,1.89697 1.52178,4.20128 3.18036,5.7699 l 1.4507,1.37202 -0.52617,1.46613 c -0.2894,0.80636 -0.60631,1.87262 -0.70425,2.36945 -0.30062,1.52501 -0.14668,4.97146 0.28903,6.47022 0.2274,0.78222 0.35474,1.57521 0.28299,1.76218 -0.0718,0.18698 -1.22061,0.90301 -2.55301,1.59117 -4.44788,2.29725 -10.25578,6.43262 -14.324,10.19908 l -1.53666,1.42268 z m 29.86498,0.72948 c -0.80005,-1.22105 -1.22841,-3.85724 -0.68167,-4.19514 0.42392,-0.262 3.01961,0.37145 3.3518,0.81796 0.17925,0.24095 0.32592,0.88351 0.32592,1.42792 0,1.00602 -0.10093,1.11238 -2.26998,2.39192 -0.18605,0.10974 -0.48257,-0.0711 -0.72607,-0.44266 z M 48.835921,166.68102 c -0.455109,-0.85037 -0.324311,-1.56035 0.371442,-2.01623 0.580385,-0.38027 0.716404,-0.3848 1.240784,-0.0412 0.758075,0.4967 1.409978,1.69506 1.08754,1.99914 -0.133337,0.12576 -0.732242,0.3082 -1.3309,0.40543 -0.927506,0.15066 -1.129933,0.0993 -1.368866,-0.34713 z m 132.093169,0.29651 c -0.93666,-0.14081 -1.11921,-0.63368 -0.55414,-1.49608 0.68775,-1.04962 1.3331,-1.29869 2.08626,-0.8052 0.67449,0.44194 0.80626,1.15967 0.36445,1.98519 -0.26678,0.49846 -0.46434,0.5314 -1.89657,0.31609 z M 52.352264,165.37166 c -0.213638,-0.41313 -0.732572,-1.04072 -1.153193,-1.39465 -0.598817,-0.50387 -0.780658,-0.89249 -0.83804,-1.79102 -0.108789,-1.7035 0.241271,-2.58808 1.51422,-3.8263 l 1.145599,-1.11435 1.873943,0.67439 c 2.900694,1.04388 4.872404,1.98572 4.872404,2.32743 0,0.44457 -1.397393,2.49175 -2.263446,3.31599 -0.976828,0.92963 -3.713936,2.55968 -4.298118,2.55968 -0.255717,0 -0.639731,-0.33802 -0.853369,-0.75117 z m 124.079176,-0.17893 c -0.852,-0.51154 -1.87984,-1.24486 -2.28411,-1.62959 -0.86605,-0.82423 -2.26345,-2.87142 -2.26345,-3.31599 0,-0.3417 1.97171,-1.28355 4.87242,-2.32743 l 1.87395,-0.67438 1.14559,1.11435 c 1.27295,1.23822 1.62301,2.1228 1.51422,3.8263 -0.0574,0.89853 -0.23922,1.28715 -0.83804,1.79102 -0.42062,0.35393 -0.93955,0.98152 -1.15319,1.39465 -0.50556,0.97764 -0.9916,0.94731 -2.86739,-0.17893 z M 48.685891,162.47251 c -0.212632,-0.34405 0.09914,-0.83229 0.409121,-0.64071 0.316694,0.19573 0.314637,0.90144 -0.0027,0.90144 -0.134943,0 -0.317864,-0.11733 -0.406493,-0.26073 z M 182.3596,162.32745 c 0.0929,-0.44598 0.54506,-0.55805 0.67529,-0.16736 0.0456,0.13649 -0.10675,0.32088 -0.33835,0.40975 -0.29048,0.11146 -0.39497,0.0362 -0.33694,-0.24239 z M 49.076996,159.86514 c 0,-0.1434 0.11733,-0.26073 0.260736,-0.26073 0.143405,0 0.260737,0.11733 0.260737,0.26073 0,0.14341 -0.117332,0.26074 -0.260737,0.26074 -0.143406,0 -0.260736,-0.11733 -0.260736,-0.26074 z m 132.975624,0 c 0,-0.1434 0.11734,-0.26073 0.26074,-0.26073 0.1434,0 0.26074,0.11733 0.26074,0.26073 0,0.14341 -0.11734,0.26074 -0.26074,0.26074 -0.1434,0 -0.26074,-0.11733 -0.26074,-0.26074 z M 57.537306,157.93271 c -1.441532,-0.58632 -2.996176,-1.20252 -3.45475,-1.36932 -0.688512,-0.25043 -0.833779,-0.44136 -0.833779,-1.09585 0,-0.43593 -0.133944,-1.08657 -0.297649,-1.44587 -0.411883,-0.90399 0.154137,-2.86198 1.192477,-4.12501 0.655914,-0.79782 0.971853,-0.97389 1.754495,-0.97773 0.524995,-0.003 1.679561,-0.23037 2.565697,-0.50615 l 1.61117,-0.50145 0.48322,1.0924 c 0.643309,1.4543 1.10688,4.45234 0.913424,5.90742 -0.262497,1.97445 -0.691695,3.61258 -1.010304,3.85604 -0.191131,0.14606 -1.270742,-0.16205 -2.924001,-0.83448 z m 113.596954,0.79439 c -0.30907,-0.37752 -0.72597,-2.01244 -0.93982,-3.68558 -0.20204,-1.58073 0.23954,-4.54823 0.89845,-6.0378 l 0.48322,-1.0924 1.61117,0.50145 c 0.88615,0.27578 2.04071,0.50355 2.5657,0.50615 0.78265,0.004 1.0986,0.17991 1.75451,0.97774 1.03834,1.26303 1.60435,3.22102 1.19247,4.12501 -0.1637,0.3593 -0.29764,1.00227 -0.29764,1.4288 0,0.55989 -0.16313,0.84173 -0.58667,1.01362 -5.16485,2.09591 -6.45925,2.53434 -6.68139,2.26301 z M 50.03303,158.1269 c -0.273793,-0.27379 -0.202777,-1.34193 0.101731,-1.53012 0.431923,-0.26694 1.549597,0.1087 1.549597,0.52081 0,0.20425 -0.260766,0.55402 -0.579486,0.77725 -0.64259,0.45009 -0.816227,0.48769 -1.071842,0.23206 z m 130.25658,-0.38981 c -0.51526,-0.51524 -0.3765,-0.97738 0.34805,-1.15924 0.77966,-0.19569 1.24247,0.15753 1.11083,0.84779 -0.1099,0.57627 -1.00332,0.76701 -1.45888,0.31145 z M 50.81524,155.51952 c -0.396008,-0.396 -0.156418,-1.36096 0.3802,-1.53128 0.629622,-0.19984 1.000234,0.21203 1.006404,1.11846 0.003,0.44191 -0.146115,0.58666 -0.604394,0.58666 -0.334613,0 -0.686608,-0.0782 -0.78221,-0.17384 z m 128.63401,-0.39551 c 0.006,-0.85458 0.36846,-1.32274 0.93983,-1.21271 0.3493,0.0673 0.49023,0.31825 0.49023,0.87306 0,0.65559 -0.11331,0.79167 -0.71703,0.86113 -0.60047,0.0691 -0.71637,-0.0157 -0.71303,-0.52148 z m 1.29969,-2.29875 c 0,-0.14341 0.11734,-0.26074 0.26074,-0.26074 0.1434,0 0.26073,0.11733 0.26073,0.26074 0,0.14341 -0.11733,0.26073 -0.26073,0.26073 -0.1434,0 -0.26074,-0.11732 -0.26074,-0.26073 z m -1.13404,-0.90423 c -0.18387,-0.47919 0.30499,-0.81133 0.66472,-0.45161 0.27831,0.27831 0.0781,0.83436 -0.30038,0.83436 -0.11961,0 -0.28355,-0.17224 -0.36434,-0.38275 z m -128.310509,-0.1207 c -0.192825,-0.31199 0.297661,-0.62113 0.644957,-0.4065 0.291598,0.18023 0.100172,0.64922 -0.26499,0.64922 -0.126475,0 -0.297463,-0.10922 -0.379967,-0.24272 z m 1.046355,-2.08038 c -0.255284,-0.41305 0.152283,-1.06648 0.665196,-1.06648 0.556845,0 0.651656,0.51985 0.180695,0.9908 -0.373638,0.37364 -0.64665,0.39806 -0.845891,0.0756 z m 126.093304,-0.0861 c -0.47057,-0.47057 -0.35668,-0.98039 0.21899,-0.98039 0.34237,0 0.52149,0.17383 0.52149,0.50608 0,0.64216 -0.34905,0.86575 -0.74048,0.47431 z M 54.584649,146.83296 c -0.394333,-1.31619 0.08356,-2.38068 1.293871,-2.882 0.817311,-0.33854 0.847624,-0.32412 2.117203,1.00676 0.762511,0.79934 1.252373,1.53618 1.200646,1.80598 -0.109514,0.57121 -1.536097,1.0736 -3.103404,1.09286 -1.173989,0.0144 -1.203257,-0.006 -1.508316,-1.0236 z m 118.866831,0.69769 c -1.31809,-0.45106 -1.2726,-1.02514 0.20388,-2.57293 1.26958,-1.33088 1.29989,-1.3453 2.1172,-1.00676 1.21032,0.50132 1.68821,1.56581 1.29388,2.88199 -0.30506,1.01817 -0.33432,1.03803 -1.50832,1.0236 -0.65848,-0.008 -1.60647,-0.15475 -2.10664,-0.3259 z M 52.988044,147.1977 c 0,-0.22705 0.139335,-0.36639 0.309622,-0.30963 0.483467,0.16117 0.563654,0.72247 0.103207,0.72247 -0.22705,0 -0.412829,-0.18578 -0.412829,-0.41284 z m 124.952536,0.10321 c 0.16116,-0.48346 0.72246,-0.56365 0.72246,-0.10321 0,0.22706 -0.18577,0.41284 -0.41282,0.41284 -0.22707,0 -0.3664,-0.13934 -0.30964,-0.30963 z M 58.9198,144.62579 c -1.340089,-1.48741 -1.499054,-1.78404 -1.497517,-2.79441 0.002,-1.2868 0.559861,-2.28402 1.782462,-3.18603 0.788674,-0.58186 0.893203,-0.59446 2.194524,-0.26432 0.751512,0.19067 1.82123,0.41743 2.377128,0.50393 l 1.010739,0.15727 -0.161636,1.17923 c -0.08889,0.64857 -0.463462,1.78445 -0.832369,2.52418 -0.680067,1.36364 -2.605303,3.56828 -3.102468,3.5527 -0.149396,-0.005 -0.946289,-0.75732 -1.770863,-1.67255 z m 110.68894,0.57292 c -1.30561,-1.33955 -2.36411,-3.37908 -2.58315,-4.97725 l -0.16164,-1.17923 1.01073,-0.15727 c 0.5559,-0.0866 1.62562,-0.31326 2.37713,-0.50393 1.30131,-0.33014 1.40585,-0.31754 2.19453,0.26432 1.24759,0.92045 1.78208,1.89501 1.77091,3.22898 -0.009,1.06447 -0.15083,1.32448 -1.52996,2.80292 -0.83606,0.89628 -1.62777,1.6296 -1.75932,1.6296 -0.13156,0 -0.72522,-0.49865 -1.31923,-1.10814 z m -57.69432,-0.99957 c -4.51663,-0.25584 -12.629258,-1.56969 -13.196798,-2.13723 -0.0603,-0.0603 0.12363,-1.095 0.4085,-2.29959 1.036628,-4.38336 1.391588,-7.59527 1.550198,-14.02753 l 0.15689,-6.36191 1.60479,-0.43877 c 2.71145,-0.74138 4.50248,-1.80699 6.64042,-3.95084 l 1.98753,-1.99305 1.40205,0.48413 c 1.85758,0.64142 4.85755,0.64142 6.71512,0 l 1.40205,-0.48413 1.98753,1.99305 c 2.13795,2.14385 3.92898,3.20946 6.64042,3.95084 l 1.60478,0.43877 0.15689,6.36191 c 0.15843,6.42475 0.51376,9.64486 1.54582,14.00906 0.28244,1.19441 0.51356,2.21554 0.51356,2.26918 0,0.43817 -8.44638,1.88047 -12.14439,2.07378 -1.56637,0.0819 -3.43462,0.18551 -4.15164,0.23029 -0.71702,0.0448 -2.88769,-0.008 -4.82372,-0.11796 z m -57.101223,-1.28186 c 0,-0.14341 0.110411,-0.26074 0.245349,-0.26074 0.13494,0 0.317861,0.11733 0.406493,0.26074 0.0886,0.1434 -0.02178,0.26073 -0.24535,0.26073 -0.223571,0 -0.406492,-0.11733 -0.406492,-0.26073 z m 121.372843,0 c 0.0885,-0.14341 0.27156,-0.26074 0.4065,-0.26074 0.13494,0 0.24536,0.11733 0.24536,0.26074 0,0.1434 -0.18292,0.26073 -0.40651,0.26073 -0.22357,0 -0.33398,-0.11733 -0.24535,-0.26073 z M 55.769232,141.7005 c -0.300015,-0.3 -0.189879,-0.60838 0.217284,-0.60838 0.215107,0 0.3911,0.17599 0.3911,0.39111 0,0.40715 -0.308371,0.51729 -0.608384,0.21727 z m 39.571806,-0.48191 c -4.644989,-1.44415 -10.05663,-3.86444 -14.28142,-6.38721 -1.457368,-0.87023 -2.919586,-1.78777 -3.249359,-2.03897 l -0.599595,-0.45673 0.975626,-2.05437 c 0.911365,-1.91909 0.983106,-2.24976 1.089141,-5.01998 l 0.113516,-2.96559 0.979557,-0.49973 c 1.164983,-0.59433 2.46864,-1.84796 3.009658,-2.89418 0.326927,-0.63221 0.551464,-0.75455 1.384996,-0.75455 1.326135,0 3.193103,-0.58206 4.225955,-1.31751 0.799533,-0.56932 0.871649,-0.57718 1.518122,-0.16551 2.215356,1.41071 4.440357,2.27489 6.675667,2.59281 l 2.34663,0.33374 0.18963,2.34191 c 0.422708,5.22059 -1.11583,18.76903 -2.2283,19.6223 -0.19294,0.14798 -0.9959,0.0222 -2.149824,-0.33643 z m 38.745452,0.27594 c -0.14562,-0.17546 -0.50188,-1.47144 -0.79169,-2.87994 -1.11409,-5.41453 -1.72685,-13.0196 -1.36512,-16.94267 l 0.19191,-2.08122 2.34663,-0.33369 c 2.23534,-0.31787 4.46018,-1.18199 6.67565,-2.59276 0.64647,-0.41166 0.71859,-0.4038 1.51812,0.16552 1.03283,0.73545 2.89981,1.31751 4.22594,1.31751 0.83352,0 1.05808,0.12234 1.38501,0.75455 0.541,1.04622 1.84467,2.29985 3.00964,2.89418 l 0.97955,0.49973 0.11352,2.96558 c 0.10603,2.77023 0.17777,3.10089 1.08914,5.01998 l 0.97563,2.05438 -0.5996,0.45673 c -2.4671,1.87923 -9.40142,5.47159 -13.57817,7.03425 -4.1027,1.53493 -5.88666,2.0167 -6.17616,1.66787 z m 41.18697,0.0104 c 0,-0.22707 0.18577,-0.41284 0.41284,-0.41284 0.46044,0 0.38026,0.5613 -0.10321,0.72245 -0.1703,0.0568 -0.30963,-0.0826 -0.30963,-0.30961 z M 57.992008,137.683 c 0.05134,-0.15418 0.204897,-0.28031 0.341137,-0.28031 0.13623,0 0.289745,0.12613 0.341127,0.28031 0.05134,0.15415 -0.102123,0.28029 -0.341127,0.28029 -0.239014,0 -0.392519,-0.12614 -0.341137,-0.28029 z m 4.293811,-0.0874 c -1.633954,-0.35374 -1.986897,-0.66698 -1.993164,-1.76892 -0.006,-0.97864 0.97804,-1.97792 2.148778,-2.18303 0.963653,-0.16886 0.987925,-0.15245 1.505469,1.01754 0.669562,1.51366 0.796912,3.12953 0.25281,3.2078 -0.215106,0.031 -1.07636,-0.092 -1.913893,-0.27339 z m 3.65473,0.17206 c -0.06326,-0.10756 -0.199044,-0.60622 -0.30165,-1.10813 -0.102607,-0.50191 -0.478372,-1.57376 -0.835041,-2.38188 -0.613902,-1.39093 -0.626447,-1.51194 -0.235209,-2.2685 0.227297,-0.43956 0.413273,-0.95799 0.413273,-1.15209 0,-0.46263 1.611386,-2.01799 2.098312,-2.02535 0.208277,-0.003 0.872517,-0.22992 1.476102,-0.50393 l 1.097409,-0.4982 2.172736,1.74243 c 1.194999,0.95834 2.578467,2.05467 3.074371,2.43629 l 0.901638,0.69386 -1.479571,1.44353 c -1.696796,1.65547 -3.922638,2.87041 -6.274666,3.42496 -1.904887,0.44913 -1.956476,0.45395 -2.107704,0.19701 z m 97.542831,-0.20646 c -2.23933,-0.54724 -4.50254,-1.80309 -6.15522,-3.41552 l -1.47957,-1.44353 0.90164,-0.69386 c 0.4959,-0.38162 1.87937,-1.47795 3.07438,-2.43629 l 2.17273,-1.74243 1.09741,0.4982 c 0.60357,0.27401 1.27341,0.50202 1.48852,0.50671 0.463,0.01 2.08589,1.61619 2.08589,2.06434 0,0.17113 0.18795,0.6746 0.41766,1.11883 0.39321,0.76036 0.38487,0.87801 -0.14243,2.00776 -0.30808,0.66003 -0.709,1.78658 -0.89093,2.50345 -0.19084,0.75189 -0.48911,1.32312 -0.70494,1.35004 -0.20579,0.0256 -1.0451,-0.1173 -1.86514,-0.3177 z m 3.55606,0.0506 c -0.16994,-0.4429 0.30397,-2.3324 0.85014,-3.38947 0.34665,-0.67089 0.47575,-0.72619 1.34154,-0.57474 2.33441,0.40837 2.98417,3.23444 0.86598,3.76656 -2.1364,0.5367 -2.9084,0.5866 -3.05766,0.19765 z m 5.93737,0.0711 c 0.0513,-0.15418 0.2049,-0.28031 0.34113,-0.28031 0.13624,0 0.28974,0.12613 0.34112,0.28031 0.0514,0.15415 -0.10211,0.28029 -0.34112,0.28029 -0.23901,0 -0.39252,-0.12614 -0.34113,-0.28029 z M 58.854612,136.13807 c -0.0886,-0.1434 -0.03686,-0.26073 0.114983,-0.26073 0.15187,0 0.276126,0.11733 0.276126,0.26073 0,0.14341 -0.05174,0.26075 -0.114984,0.26075 -0.06326,0 -0.187493,-0.11734 -0.276125,-0.26075 z m 113.550748,0 c 0,-0.1434 0.12426,-0.26073 0.27613,-0.26073 0.15187,0 0.2036,0.11733 0.11498,0.26073 -0.0886,0.14341 -0.21289,0.26075 -0.27613,0.26075 -0.0632,0 -0.11498,-0.11734 -0.11498,-0.26075 z m -110.81301,-3.8024 c 0,-0.22706 0.139334,-0.36639 0.309622,-0.30963 0.483467,0.16116 0.563654,0.72246 0.103207,0.72246 -0.227059,0 -0.412829,-0.18578 -0.412829,-0.41283 z m 107.74392,0.10321 c 0.16117,-0.48347 0.72247,-0.56365 0.72247,-0.10321 0,0.22705 -0.18578,0.41283 -0.41284,0.41283 -0.22706,0 -0.36639,-0.13933 -0.30963,-0.30962 z m -106.352676,-1.1419 c -0.217314,-0.56632 0.334376,-1.09888 0.729271,-0.70399 0.333745,0.33375 0.126986,1.11262 -0.295363,1.11262 -0.152402,0 -0.34766,-0.18389 -0.433908,-0.40863 z m 12.036686,-0.4332 c -4.363896,-3.44922 -4.601738,-3.67534 -4.441048,-4.22223 0.0875,-0.29798 0.231198,-0.95244 0.31922,-1.45437 0.206671,-1.17862 1.18273,-2.34003 2.439391,-2.90266 0.894433,-0.40045 1.122637,-0.40817 2.228294,-0.0755 0.677494,0.2039 1.549204,0.37073 1.93714,0.37073 0.641211,0 0.720372,0.10972 0.870763,1.20697 0.09096,0.66384 0.04326,1.98382 -0.106006,2.93329 -0.267503,1.70124 -1.587735,4.99383 -1.995559,4.97679 -0.115091,-0.005 -0.678578,-0.3797 -1.252195,-0.83309 z m 79.39164,-0.78779 c -0.88162,-1.89682 -1.39543,-4.7333 -1.15175,-6.35829 0.15349,-1.02353 0.24211,-1.13788 0.8818,-1.13788 0.39114,0 1.26548,-0.16683 1.94298,-0.37073 1.10565,-0.33274 1.33386,-0.32502 2.22829,0.0755 1.15114,0.51537 2.35898,1.83407 2.35898,2.57547 0,0.28056 0.13631,0.90112 0.3029,1.37902 0.28762,0.82506 0.25802,0.90717 -0.58665,1.62693 -1.42069,1.21058 -4.8851,3.83967 -5.05966,3.83967 -0.0877,0 -0.5003,-0.73332 -0.91689,-1.62962 z m 13.47944,1.46122 c -0.38355,-0.38355 -0.18184,-1.17403 0.27703,-1.08565 0.25096,0.0482 0.45629,0.31115 0.45629,0.58404 0,0.51875 -0.42527,0.80965 -0.73332,0.50161 z M 64.589679,128.83566 c -0.08928,-0.14443 0.02622,-0.33491 0.256594,-0.42331 0.499225,-0.19157 0.77744,0.0195 0.53748,0.40781 -0.216516,0.35032 -0.582723,0.35747 -0.794074,0.0155 z m 101.699511,0.0199 c -0.0825,-0.13348 -0.0308,-0.3164 0.11498,-0.4065 0.31115,-0.19229 0.78646,0.0517 0.78646,0.40386 0,0.31727 -0.70571,0.31934 -0.90144,0.003 z m -99.569023,-1.23472 c -0.359467,-0.35947 -0.15388,-1.12219 0.379412,-1.40761 0.459688,-0.24601 0.647083,-0.20093 1.108131,0.26659 0.546832,0.55452 0.547541,0.56816 0.04878,0.93877 -0.535804,0.39811 -1.246824,0.49172 -1.536314,0.20225 z m 96.674443,-0.20225 c -0.49947,-0.37111 -0.49903,-0.38326 0.0327,-0.92274 0.80989,-0.82161 1.91889,-0.1554 1.51094,0.9077 -0.18998,0.49508 -0.88849,0.50189 -1.54368,0.0151 z m -98.151945,-0.14541 c 0,-0.1434 0.117329,-0.26073 0.260733,-0.26073 0.143404,0 0.260733,0.11733 0.260733,0.26073 0,0.14341 -0.117329,0.26074 -0.260733,0.26074 -0.143404,0 -0.260733,-0.11734 -0.260733,-0.26074 z m 3.686994,-1.52773 c -0.300487,-0.30048 -0.481261,-0.71592 -0.401723,-0.92319 0.169568,-0.44188 0.830999,-0.74299 1.170776,-0.533 0.299314,0.18498 0.301266,1.1754 0.003,1.64583 -0.182596,0.28824 -0.330829,0.25183 -0.772306,-0.18964 z m 92.941931,0.0676 c -0.0861,-0.2242 -0.15643,-0.69139 -0.15643,-1.03817 0,-0.76075 0.894,-0.88445 1.25929,-0.17423 0.29541,0.57438 0.13328,1.04222 -0.47374,1.36708 -0.35297,0.18891 -0.5123,0.14974 -0.62912,-0.15468 z m -91.153468,-3.2331 c 0,-0.1434 0.124257,-0.26074 0.276127,-0.26074 0.151869,0 0.203616,0.11734 0.114983,0.26074 -0.0886,0.1434 -0.212889,0.26072 -0.276126,0.26072 -0.06326,0 -0.114984,-0.11732 -0.114984,-0.26072 z m 89.823728,0 c -0.0885,-0.1434 0.0217,-0.26074 0.24535,-0.26074 0.22357,0 0.40649,0.11734 0.40649,0.26074 0,0.1434 -0.11041,0.26072 -0.24535,0.26072 -0.13494,0 -0.31786,-0.11732 -0.40649,-0.26072 z m -88.259308,-1.43406 c 0,-0.2151 0.176003,-0.3911 0.391109,-0.3911 0.215107,0 0.3911,0.176 0.3911,0.3911 0,0.21511 -0.175993,0.39111 -0.3911,0.39111 -0.215106,0 -0.391109,-0.176 -0.391109,-0.39111 z m 3.324393,0.088 c -1.463715,-0.5346 -0.416121,-2.91847 1.074595,-2.44533 0.510332,0.16198 1.445742,2.2922 1.140543,2.5974 -0.22567,0.22567 -1.401985,0.14492 -2.215138,-0.15207 z m 78.222075,0.15207 c -0.3052,-0.3052 0.6302,-2.43542 1.14054,-2.5974 0.79696,-0.25293 1.79162,0.5383 1.79162,1.4252 0,0.60759 -0.15653,0.80525 -0.82111,1.03692 -0.894,0.31164 -1.87201,0.37432 -2.11105,0.13528 z m 4.75731,-0.24013 c 0,-0.21511 0.176,-0.3911 0.39111,-0.3911 0.21511,0 0.3911,0.17599 0.3911,0.3911 0,0.21511 -0.17599,0.39111 -0.3911,0.39111 -0.21511,0 -0.39111,-0.176 -0.39111,-0.39111 z m -79.701672,-0.32592 c -0.0884,-0.25096 -0.319349,-0.85194 -0.513288,-1.33552 -0.479821,-1.19644 -0.451479,-1.41494 0.286779,-2.21154 0.416801,-0.44974 0.910851,-0.68993 1.419152,-0.68993 0.92996,0 2.634719,0.94406 2.634719,1.45906 0,0.75559 -2.693955,3.23421 -3.515179,3.23421 -0.08338,0 -0.223808,-0.20532 -0.312183,-0.45628 z m 72.531402,-0.0227 c -0.9593,-0.58496 -2.47697,-2.27817 -2.47697,-2.7635 0,-0.50817 1.71183,-1.45074 2.63471,-1.45074 0.77418,0 2.05879,1.0408 2.05833,1.66768 -2.6e-4,0.49906 -0.9725,2.87186 -1.20835,2.94939 -0.12402,0.0408 -0.57749,-0.1405 -1.00772,-0.40283 z m -55.726488,-2.79452 c -1.475872,-0.35776 -3.500766,-1.29022 -4.494013,-2.06947 -0.460575,-0.36136 -0.47781,-0.48608 -0.172012,-1.24479 0.186912,-0.46376 0.475919,-1.34049 0.642235,-1.94828 0.330061,-1.20623 1.491594,-2.20355 2.90975,-2.49835 0.978252,-0.20336 3.73479,0.59115 3.9082,1.12645 0.20246,0.625 0.91222,5.5354 0.9139,6.32285 0.002,0.67339 -0.0659,0.71572 -1.10659,0.69532 -0.60947,-0.0119 -1.78014,-0.18463 -2.60147,-0.38373 z M 132.2535,117.6911 c 0.002,-0.78745 0.71143,-5.69785 0.9139,-6.32285 0.17342,-0.5353 2.92994,-1.32981 3.90818,-1.12645 1.41815,0.2948 2.57969,1.29212 2.90975,2.49835 0.16632,0.60778 0.45532,1.48452 0.64223,1.94828 0.30581,0.75871 0.28856,0.88343 -0.17202,1.24479 -1.64558,1.29104 -5.07132,2.46258 -7.22582,2.47107 -0.89414,0.004 -0.97763,-0.0575 -0.97622,-0.71319 z m -31.94096,-1.14188 c -0.10343,-0.91358 -0.348708,-2.58713 -0.545098,-3.71903 l -0.35701,-2.05796 1.211348,-1.07086 c 1.55904,-1.37822 2.35712,-1.61316 4.85894,-1.43037 0.77573,0.0567 1.11762,0.24945 1.53941,0.86803 0.29822,0.43733 1.07376,1.34913 1.72341,2.02622 1.13241,1.18022 1.16595,1.25949 0.81239,1.9201 -1.01142,1.88988 -5.3456,4.63214 -7.84608,4.96427 l -1.20924,0.16063 z m 28.12435,1.11868 c -0.73593,-0.25436 -2.01013,-0.86652 -2.83153,-1.36036 -1.4998,-0.90169 -3.78286,-3.16071 -3.78286,-3.74303 0,-0.17147 0.42187,-0.7161 0.93747,-1.21031 0.51561,-0.49419 1.26769,-1.37364 1.67131,-1.95432 0.61443,-0.88401 0.89674,-1.06767 1.73506,-1.12877 2.50893,-0.18285 3.30315,0.0513 4.86919,1.43572 l 1.21757,1.07632 -0.37377,2.0525 c -0.20556,1.12889 -0.45201,2.78585 -0.54765,3.68213 -0.16523,1.54855 -0.20826,1.62918 -0.8653,1.62109 -0.38028,-0.005 -1.29355,-0.21661 -2.02949,-0.47097 z m -44.19238,-0.62864 c -0.01754,-0.0358 -0.06454,-0.65183 -0.10443,-1.36886 -0.09352,-1.68115 0.545729,-2.47702 1.989501,-2.47702 0.840361,0 1.112585,0.16177 1.910069,1.135 0.511524,0.62423 0.930039,1.21629 0.930039,1.31567 0,0.36817 -2.770889,1.45538 -3.715496,1.45784 -0.537775,9.9e-4 -0.992132,-0.0268 -1.009683,-0.0626 z m 59.80576,-0.57074 c -0.75286,-0.35407 -1.36886,-0.72507 -1.36886,-0.82446 0,-0.0994 0.41852,-0.69144 0.93004,-1.31567 0.79747,-0.97324 1.06971,-1.135 1.91007,-1.135 1.42538,0 2.07344,0.79362 2.0227,2.47701 l -0.0393,1.30368 -1.04289,0.0691 c -0.68375,0.0454 -1.51432,-0.1526 -2.41177,-0.57466 z m -62.12448,-0.35784 c -0.392697,-0.31799 -0.545601,-0.64274 -0.436491,-0.92706 0.422004,-1.09972 1.835293,-0.61973 1.692185,0.57472 -0.101621,0.8481 -0.504024,0.96101 -1.255694,0.35234 z m 66.66565,0.29846 c -0.61861,-0.61861 0.20993,-2.12076 1.00208,-1.81678 0.71189,0.27318 0.77983,0.99356 0.14237,1.50974 -0.63862,0.51713 -0.87181,0.57968 -1.14445,0.30704 z m -59.855483,-2.83372 c -0.445064,-0.50691 -0.809211,-1.01276 -0.809211,-1.12414 0,-0.37122 1.057636,-1.34378 1.46135,-1.34378 0.70834,0 1.406746,0.52651 1.406746,1.0605 0,0.7087 -0.69754,2.32907 -1.002628,2.32907 -0.135865,0 -0.611183,-0.41474 -1.056257,-0.92165 z m 52.498103,0.0175 c -0.20779,-0.49732 -0.37779,-1.1385 -0.37779,-1.42487 0,-0.53399 0.6984,-1.0605 1.40674,-1.0605 0.40371,0 1.46134,0.97256 1.46134,1.34378 0,0.30844 -1.5842,2.04579 -1.86546,2.04579 -0.13587,0 -0.41703,-0.40689 -0.62483,-0.9042 z m -28.45343,-1.00596 c -0.45578,-0.16835 -0.89927,-0.37802 -0.98555,-0.46595 -0.0863,-0.088 0.18996,-1.19193 0.61384,-2.45333 0.68729,-2.04529 0.86447,-2.33437 1.63737,-2.67154 1.10453,-0.48185 2.45401,-0.48185 3.55855,0 0.77176,0.33668 0.95023,0.6267 1.62959,2.64841 0.4196,1.24866 0.76292,2.31059 0.76292,2.35983 0,0.0492 -0.4717,0.27823 -1.04823,0.50891 -1.23894,0.49573 -4.90721,0.53953 -6.16849,0.0738 z m -3.39773,-2.09811 c -0.54359,-0.49344 -1.20219,-1.26328 -1.46357,-1.71077 l -0.47522,-0.81362 0.90544,-0.90545 c 0.498,-0.49799 1.12252,-0.90501 1.38782,-0.90447 0.79338,0.002 2.17714,0.98665 2.17714,1.54983 0,0.64987 -0.99791,3.34457 -1.30999,3.53746 -0.12833,0.0793 -0.67805,-0.25954 -1.22162,-0.75298 z m 11.10853,-0.29508 c -0.29245,-0.66111 -0.59615,-1.59904 -0.67489,-2.08426 -0.12799,-0.78869 -0.0499,-0.93902 0.73585,-1.4181 1.21993,-0.74374 1.70401,-0.67757 2.75868,0.37709 0.90868,0.90868 0.91183,0.91983 0.46164,1.62961 -0.60179,0.94876 -1.70807,2.13298 -2.28469,2.44565 -0.39279,0.21297 -0.54732,0.0656 -0.99659,-0.94999 z m -28.653635,-0.23786 c 0,-0.22705 0.185768,-0.41283 0.412819,-0.41283 0.22706,0 0.366394,0.13933 0.309631,0.30963 -0.161152,0.48345 -0.72245,0.56364 -0.72245,0.1032 z m 47.367135,0.19555 c -0.30002,-0.30001 -0.18988,-0.60838 0.21728,-0.60838 0.21511,0 0.3911,0.176 0.3911,0.3911 0,0.40716 -0.30837,0.51729 -0.60838,0.21728 z m -42.536038,-0.70105 c -0.63777,-0.46634 -0.34389,-1.21102 0.47792,-1.21102 0.61083,0 0.94867,0.42543 0.94867,1.19464 0,0.46894 -0.79519,0.47809 -1.42659,0.0164 z m 36.886738,-0.0164 c 0,-0.75747 0.33396,-1.19464 0.91259,-1.19464 0.77798,0 1.08964,0.7901 0.48582,1.23163 -0.60728,0.44405 -1.39841,0.42314 -1.39841,-0.0369 z m -39.63195,-0.41242 c 0,-0.14341 0.175992,-0.26075 0.391099,-0.26075 0.215106,0 0.391109,0.11734 0.391109,0.26075 0,0.14341 -0.176003,0.26073 -0.391109,0.26073 -0.215107,0 -0.391099,-0.11732 -0.391099,-0.26073 z m 5.127832,0.087 c -0.0956,-0.0956 -0.17382,-0.4397 -0.17382,-0.76465 0,-0.76843 0.94215,-1.09924 1.510868,-0.5305 0.37257,0.37256 0.36625,0.45791 -0.0695,0.93938 -0.487318,0.53848 -0.953898,0.66943 -1.267568,0.35577 z M 131.3569,108.7803 c -0.544,-0.60112 -0.37927,-1.3249 0.30021,-1.31905 0.7632,0.007 1.1674,0.40768 1.07395,1.06577 -0.11327,0.7976 -0.77172,0.91897 -1.37416,0.25328 z m 5.84905,0.24138 c 0,-0.14341 0.11732,-0.26075 0.26074,-0.26075 0.1434,0 0.26073,0.11734 0.26073,0.26075 0,0.1434 -0.11733,0.26072 -0.26073,0.26072 -0.14342,0 -0.26074,-0.11732 -0.26074,-0.26072 z m -35.07019,-1.82701 c -0.0892,-0.14441 0.0262,-0.33491 0.25659,-0.42331 0.49921,-0.19157 0.77744,0.0195 0.53747,0.40781 -0.2165,0.35032 -0.58272,0.35747 -0.79406,0.0155 z m 2.80405,0.0899 c -0.757,-0.30545 -0.12826,-1.21261 0.65184,-0.94049 0.17926,0.0626 0.32592,0.33857 0.32592,0.61343 0,0.48727 -0.31751,0.59347 -0.97776,0.32706 z m 20.79373,-0.32089 c 0,-0.60982 0.64732,-0.89571 1.01769,-0.44945 0.1927,0.2322 0.18293,0.42033 -0.0332,0.63634 -0.4655,0.46549 -0.9846,0.36694 -0.9846,-0.18689 z m 3.04901,0.32683 c -0.24333,-0.24332 0.0507,-0.61546 0.48632,-0.61546 0.20664,0 0.37572,0.17599 0.37572,0.3911 0,0.39273 -0.55041,0.53599 -0.86204,0.22436 z m 1.64425,-0.61546 c 0,-0.14341 0.11733,-0.26075 0.26073,-0.26075 0.14341,0 0.26074,0.11734 0.26074,0.26075 0,0.1434 -0.11733,0.26073 -0.26074,0.26073 -0.1434,0 -0.26073,-0.11733 -0.26073,-0.26073 z m -23.46628,-0.39111 c 0,-0.21511 0.11734,-0.3911 0.26074,-0.3911 0.1434,0 0.26074,0.17599 0.26074,0.3911 0,0.2151 -0.11734,0.39111 -0.26074,0.39111 -0.1434,0 -0.26074,-0.17601 -0.26074,-0.39111 z m 17.20861,0 c 0,-0.21511 0.11734,-0.3911 0.26074,-0.3911 0.1434,0 0.26073,0.17599 0.26073,0.3911 0,0.2151 -0.11733,0.39111 -0.26073,0.39111 -0.1434,0 -0.26074,-0.17601 -0.26074,-0.39111 z m -10.95093,-0.52156 c 0,-0.21511 0.17599,-0.39111 0.3911,-0.39111 0.21511,0 0.39111,0.176 0.39111,0.39111 0,0.21511 -0.176,0.3911 -0.39111,0.3911 -0.21511,0 -0.3911,-0.17599 -0.3911,-0.3911 z m 4.43252,0 c 0,-0.21511 0.17599,-0.39111 0.3911,-0.39111 0.21512,0 0.39111,0.176 0.39111,0.39111 0,0.21511 -0.17599,0.3911 -0.39111,0.3911 -0.21511,0 -0.3911,-0.17599 -0.3911,-0.3911 z m -5.99693,-0.13037 c 0,-0.14341 0.11732,-0.26074 0.26072,-0.26074 0.14341,0 0.26074,0.11733 0.26074,0.26074 0,0.1434 -0.11733,0.26074 -0.26074,0.26074 -0.1434,0 -0.26072,-0.11734 -0.26072,-0.26074 z m 7.82208,0 c 0,-0.14341 0.11734,-0.26074 0.26074,-0.26074 0.14341,0 0.26074,0.11733 0.26074,0.26074 0,0.1434 -0.11733,0.26074 -0.26074,0.26074 -0.1434,0 -0.26074,-0.11734 -0.26074,-0.26074 z"
       id="path880"
       inkscape:connector-curvature="0" />
  </g>
</svg>
